<svg version="1.1" id="Layer_1" xmlns="http://www.w3.org/2000/svg" xmlns:xlink="http://www.w3.org/1999/xlink" x="0px" y="0px"
	 width="100%" viewBox="0 0 1597 936" enable-background="new 0 0 1597 936" xml:space="preserve">
<path fill="#F6F6F6" opacity="1.000000" stroke="none" 
	d="
M1598.000000,196.000000 
	C1598.000000,377.362701 1598.000000,558.725403 1597.656494,740.251282 
	C1596.547852,742.631531 1595.706299,744.825928 1595.036499,747.071411 
	C1594.171997,749.969299 1593.846558,753.095703 1592.585938,755.795349 
	C1588.228149,765.127441 1583.751709,774.414917 1578.963867,783.532227 
	C1574.506226,792.021362 1570.059204,800.581177 1564.761719,808.547546 
	C1558.319336,818.235229 1550.585449,827.064758 1544.154907,836.759460 
	C1536.928345,847.654419 1527.343018,856.013855 1517.462280,864.205811 
	C1512.811646,868.061707 1508.332031,872.130310 1503.589478,875.867065 
	C1496.911621,881.128601 1490.171997,886.327271 1483.240356,891.244995 
	C1479.495483,893.901733 1474.748413,895.314270 1471.409424,898.342224 
	C1462.895386,906.063293 1452.622803,910.583801 1442.496704,915.374756 
	C1437.599487,917.691711 1432.087769,918.721558 1427.218506,921.084412 
	C1413.688599,927.650024 1399.046631,930.344666 1384.690552,934.092041 
	C1382.989868,934.536011 1381.557007,936.005676 1380.000000,937.000000 
	C995.303955,937.000000 610.607910,937.000000 225.751129,936.655640 
	C224.930984,935.884705 224.326431,935.279419 223.604156,935.057861 
	C208.692963,930.484192 193.663177,926.269470 178.872894,921.335999 
	C160.142944,915.088440 142.918533,905.736328 126.814270,894.331360 
	C121.051872,890.250427 115.291153,886.164307 109.615128,881.965088 
	C103.778946,877.647278 97.503578,873.737549 92.387016,868.672729 
	C82.843140,859.225342 73.911606,849.150024 64.895775,839.181824 
	C58.980324,832.641418 52.583248,826.343018 47.782185,819.030029 
	C38.752075,805.275330 30.150665,791.166504 22.462124,776.627808 
	C16.765646,765.856018 11.770884,754.572876 8.969470,742.536255 
	C8.070942,738.675720 7.349921,734.726135 5.950078,731.044495 
	C4.740136,727.862305 2.682767,725.002380 1.000010,722.000000 
	C1.000000,562.970642 1.000000,403.941254 1.361111,244.387817 
	C2.298621,242.595963 3.307811,241.351456 3.377525,240.056381 
	C3.703059,234.008911 3.769335,227.947464 3.951100,221.934540 
	C3.973907,221.978043 3.887207,221.931824 4.282877,221.946625 
	C5.915816,220.715485 7.998414,219.614227 8.240846,218.197983 
	C9.181975,212.700134 11.113438,207.076981 8.205899,201.415131 
	C8.287500,201.257065 8.610748,201.108429 8.934250,201.314957 
	C10.071684,201.140701 11.140632,200.971344 11.659302,200.345749 
	C15.891755,195.240921 14.928734,188.819443 15.950895,182.934326 
	C15.973389,182.977753 15.886849,182.932159 16.251724,182.914551 
	C17.187805,182.589371 18.127750,182.403976 18.276072,181.956299 
	C21.627720,171.840256 29.161018,163.661301 31.622511,153.137680 
	C31.765724,152.525421 32.206478,151.971375 32.556446,151.420547 
	C37.330666,143.906296 42.000492,136.322357 46.929482,128.910843 
	C50.892406,122.951958 54.961594,117.038727 59.374149,111.411469 
	C63.181263,106.556358 67.651047,102.226875 71.618553,97.489708 
	C74.960808,93.499077 78.061188,89.299408 81.126549,85.088829 
	C81.733223,84.255501 81.693527,82.951599 82.006668,81.631989 
	C82.244423,81.097740 82.512276,80.948540 83.246567,80.961624 
	C86.865082,80.808983 88.678238,79.161240 88.953934,75.929977 
	C88.975807,75.973045 88.889458,75.929710 89.291489,75.945450 
	C92.652397,76.213860 94.291855,75.093788 93.953079,71.934135 
	C93.977249,71.977905 93.889748,71.929504 94.273331,71.943192 
	C99.952789,67.789162 105.250580,63.623833 110.519897,59.422817 
	C110.578133,59.376381 110.265266,58.864464 110.207634,58.412739 
	C110.289635,58.255634 110.611824,58.107941 110.927437,58.315544 
	C115.735710,56.795166 120.158722,54.980991 121.954193,49.930260 
	C121.976463,49.973404 121.889908,49.929386 122.296692,49.951111 
	C124.403343,49.540253 126.541817,49.618145 127.733582,48.594181 
	C137.126541,40.523830 147.967575,34.918476 158.946869,29.449240 
	C163.802521,27.030447 168.322739,23.938337 173.205627,21.072369 
	C173.416000,20.992844 173.864029,20.952606 174.071671,20.901073 
	C174.556229,20.749378 174.782181,20.580864 175.300781,20.325123 
	C176.078720,20.160799 176.513031,20.015348 177.127686,20.131687 
	C186.138382,17.550209 194.977219,14.732460 203.778305,11.801348 
	C204.316025,11.622266 204.554779,10.545470 204.955032,9.929513 
	C204.977448,9.972663 204.890793,9.928508 205.181656,9.962257 
	C206.312469,9.734939 207.152420,9.473871 208.198517,9.108643 
	C208.404663,9.004482 208.863708,8.952884 209.091217,8.881540 
	C209.622375,8.673252 209.844589,8.453811 210.309433,8.073224 
	C211.076920,7.966146 211.520340,7.937718 212.154739,8.166045 
	C213.228897,7.999189 214.112061,7.575576 215.315643,7.073170 
	C216.073135,6.952945 216.510208,6.911513 217.151276,7.149920 
	C218.568619,7.003808 219.781921,6.577855 221.315659,6.073129 
	C222.073151,5.952944 222.510223,5.911533 223.172211,6.162032 
	C228.742554,5.798988 234.090179,5.160440 239.426193,4.436182 
	C239.669495,4.403159 239.807953,3.597635 240.413208,3.096270 
	C241.887451,2.360422 242.943726,1.680214 244.000000,1.000003 
	C619.029358,1.000000 994.058777,1.000000 1369.245850,1.358722 
	C1370.406860,2.138821 1371.373779,2.756015 1372.419189,2.949562 
	C1378.919189,4.153132 1385.589722,4.718385 1391.921265,6.499711 
	C1414.572876,12.872635 1436.897217,20.233007 1457.415161,32.072830 
	C1469.165405,38.853378 1481.306396,45.163555 1492.225708,53.120544 
	C1503.454956,61.303383 1513.605469,71.022156 1523.856201,80.472061 
	C1530.309082,86.420731 1536.673584,92.650261 1542.025513,99.567894 
	C1551.799438,112.201218 1561.060913,125.257263 1570.006104,138.495209 
	C1574.991211,145.872711 1579.070068,153.886475 1583.245605,161.778381 
	C1585.772339,166.553818 1587.755981,171.622070 1589.878662,176.603516 
	C1590.925049,179.059143 1591.720215,181.621201 1592.653931,184.125824 
	C1593.423828,186.191284 1594.142578,188.282669 1595.045410,190.289902 
	C1595.923340,192.241364 1597.006836,194.100372 1598.000000,196.000000 
M806.456116,378.554626 
	C806.822876,379.272247 807.189636,379.989868 807.676697,381.411041 
	C808.652405,383.918182 809.628113,386.425354 810.545776,389.540619 
	C810.872742,390.267914 811.199707,390.995209 811.624817,392.411316 
	C812.253113,393.920288 812.881409,395.429260 813.482056,397.647583 
	C814.456909,400.022583 815.431824,402.397552 816.470154,405.442230 
	C816.781616,406.277252 817.093079,407.112274 817.397949,408.601074 
	C817.853455,409.565643 818.308960,410.530212 818.825317,412.224335 
	C822.262207,421.809174 825.699036,431.394043 829.117920,441.743256 
	C831.429321,447.823669 833.740723,453.904053 836.069214,460.740814 
	C836.623169,462.136932 837.177124,463.533051 837.649292,465.527130 
	C837.954956,466.250610 838.260681,466.974060 838.638245,468.404816 
	C839.584229,470.916779 840.530212,473.428741 841.498413,476.629913 
	C842.203918,478.312988 842.909363,479.996094 843.612366,482.289368 
	C843.851440,482.844513 844.090454,483.399689 844.286926,484.522308 
	C844.587341,484.996674 844.887756,485.471039 845.175598,486.652802 
	C845.594666,487.750031 846.013733,488.847260 846.408081,490.580475 
	C846.997375,491.703461 847.586670,492.826416 848.136536,494.662018 
	C848.594849,495.754181 849.053162,496.846375 849.470032,498.663696 
	C850.583679,501.574738 851.697327,504.485779 852.890808,508.129578 
	C853.851685,510.729401 854.812622,513.329224 855.646851,516.568054 
	C856.220703,517.970032 856.794495,519.372070 857.432739,521.490173 
	C858.760864,524.975464 860.088989,528.460754 861.398010,532.642578 
	C862.093872,534.347717 862.789673,536.052856 863.546692,538.462708 
	C864.842041,541.956787 866.137390,545.450928 867.408569,549.639526 
	C868.130310,551.328979 868.851990,553.018494 869.695557,555.388000 
	C870.268005,556.907532 870.840515,558.427063 871.340210,560.504456 
	C871.612915,560.987671 871.885620,561.470886 872.152100,562.664246 
	C872.596191,563.756226 873.040344,564.848267 873.453613,566.632324 
	C874.146240,568.332275 874.838806,570.032227 875.596252,572.326904 
	C875.838989,572.869934 876.081726,573.412903 876.231995,574.523865 
	C876.529602,575.003662 876.827209,575.483459 877.144714,576.678589 
	C877.618835,577.763794 878.093018,578.848999 878.534119,580.543518 
	C878.853882,581.274475 879.173584,582.005432 879.650208,583.431152 
	C880.923950,586.934753 882.197693,590.438416 883.439636,594.553650 
	C883.785278,595.283691 884.130981,596.013733 884.563843,597.453369 
	C885.844177,600.951416 887.124512,604.449402 888.331177,608.506958 
	C888.604614,608.989929 888.878052,609.472900 889.144470,610.667297 
	C889.599121,611.757690 890.053711,612.848022 890.519775,614.639038 
	C891.398132,616.744324 892.276489,618.849609 893.146423,621.661621 
	C893.567261,622.756775 893.988098,623.851868 894.371277,625.641479 
	C895.076294,627.345093 895.781372,629.048645 896.617737,631.428406 
	C897.230774,632.933228 897.843750,634.438110 898.431152,636.557251 
	C898.777405,637.286926 899.123718,638.016541 899.600281,639.448181 
	C900.890076,642.945984 902.179932,646.443726 903.438843,650.633606 
	C904.172729,652.309631 904.906616,653.985596 905.623596,655.893738 
	C905.623596,655.893738 905.796875,656.049072 905.759277,656.845459 
	C907.547241,661.551636 909.335266,666.257812 911.154907,671.673523 
	C911.843750,673.438293 912.532593,675.203064 913.164673,677.702026 
	C913.984985,679.692444 914.805298,681.682861 915.691589,684.278870 
	C915.926636,684.835266 916.161621,685.391724 916.372192,686.627869 
	C917.270203,688.270996 918.168213,689.914124 919.942200,691.884460 
	C946.981750,691.908813 974.021301,691.953247 1001.060669,691.900879 
	C1002.489136,691.898071 1003.916077,691.075134 1005.879333,690.145203 
	C1011.092041,674.949463 1016.372864,659.776611 1021.494385,644.550171 
	C1025.129639,633.742188 1028.549927,622.861816 1032.405273,611.676758 
	C1032.590576,611.394653 1032.650879,611.087952 1033.007324,610.304871 
	C1033.177246,609.515686 1033.347290,608.726562 1033.891968,607.337646 
	C1034.187500,606.208008 1034.483032,605.078369 1035.239502,603.452942 
	C1035.696411,601.949707 1036.153442,600.446472 1036.982300,598.343689 
	C1037.265869,597.219543 1037.549561,596.095337 1038.282104,594.431580 
	C1040.261108,588.594604 1042.239990,582.757690 1044.671875,576.367859 
	C1044.748047,575.903442 1044.824219,575.439026 1045.333252,574.590759 
	C1045.429199,574.043152 1045.525269,573.495544 1045.943970,572.434937 
	C1046.095581,571.851013 1046.247192,571.267029 1046.903931,570.178284 
	C1047.479126,568.101807 1048.054321,566.025391 1048.996338,563.288330 
	C1049.971924,560.185669 1050.947510,557.083069 1052.327515,553.577881 
	C1052.433960,553.035400 1052.540405,552.492859 1052.991089,551.448181 
	C1053.129272,550.861938 1053.267334,550.275696 1053.885010,549.148621 
	C1055.051025,545.407837 1056.217041,541.666992 1057.745117,537.336365 
	C1057.786987,536.880066 1057.828857,536.423767 1058.285278,535.568054 
	C1058.414185,535.029846 1058.543091,534.491638 1059.025513,533.345337 
	C1059.327148,532.224243 1059.628784,531.103210 1060.329224,529.573303 
	C1060.449951,529.034119 1060.570557,528.494995 1061.055664,527.351257 
	C1061.416992,525.995850 1061.778442,524.640503 1062.662720,522.930054 
	C1062.917114,521.930237 1063.171631,520.930359 1063.822876,519.373535 
	C1064.058105,518.495728 1064.293457,517.617920 1064.927490,516.276855 
	C1065.096436,515.495056 1065.265503,514.713257 1065.825439,513.370667 
	C1066.071777,512.496521 1066.318237,511.622345 1066.962158,510.281708 
	C1067.142944,509.500153 1067.323608,508.718567 1067.909912,507.292786 
	C1068.832275,504.168854 1069.754639,501.044922 1071.376587,497.338837 
	C1071.941284,497.500732 1072.505981,497.662659 1073.043213,498.595093 
	C1075.851074,506.377686 1078.658936,514.160339 1081.413452,522.635132 
	C1082.135620,524.325562 1082.857910,526.015930 1083.664917,528.404053 
	C1084.318115,529.913025 1084.971313,531.421997 1085.526978,533.476685 
	C1085.753540,533.964600 1085.980103,534.452576 1086.220947,535.669861 
	C1089.320679,544.091919 1092.420410,552.513916 1095.544556,561.662964 
	C1097.177734,566.035461 1098.811035,570.407959 1100.442627,575.249634 
	C1100.516968,575.571045 1100.691284,575.823364 1100.934937,576.797546 
	C1103.828369,584.760742 1106.721802,592.723938 1109.682129,601.391846 
	C1110.611816,603.908630 1111.541504,606.425354 1112.488770,609.672180 
	C1118.333374,625.445862 1124.177856,641.219543 1130.030518,657.702515 
	C1130.493652,658.783936 1130.956787,659.865356 1131.389404,661.688965 
	C1133.110718,666.033691 1134.831909,670.378479 1136.644897,675.404297 
	C1137.225586,676.919434 1137.806396,678.434631 1138.376953,680.599060 
	C1138.846924,681.549622 1139.316772,682.500122 1139.798950,684.000305 
	C1139.970215,684.319336 1140.141602,684.638306 1140.242676,685.533081 
	C1140.546143,686.007019 1140.849609,686.481018 1141.218628,687.709534 
	C1141.891113,691.008484 1143.773682,692.007141 1147.220337,691.985107 
	C1172.111572,691.826416 1197.005249,691.801147 1221.895630,692.030151 
	C1226.088623,692.068604 1228.074707,690.738403 1228.996338,686.222351 
	C1231.531494,678.796875 1234.066528,671.371399 1237.005737,663.366211 
	C1237.475586,661.810486 1237.945557,660.254700 1238.926880,658.183899 
	C1240.105713,654.433228 1241.284546,650.682556 1242.950806,646.337769 
	C1244.071045,642.750488 1245.191284,639.163269 1246.825317,635.077637 
	C1248.010742,631.356873 1249.196167,627.636108 1250.844604,623.317810 
	C1251.672119,620.738037 1252.499634,618.158325 1253.793457,615.198853 
	C1253.944092,614.436035 1254.094727,613.673157 1254.709839,612.273865 
	C1255.594238,609.388245 1256.478638,606.502563 1257.852173,603.247864 
	C1258.023926,602.470276 1258.195557,601.692688 1258.811035,600.352295 
	C1259.137207,599.218506 1259.463379,598.084656 1260.188599,596.461121 
	C1260.502441,595.277527 1260.816406,594.093933 1261.562744,592.316223 
	C1261.790161,591.370972 1262.017578,590.425781 1262.799805,589.033447 
	C1264.708862,583.331909 1266.617920,577.630371 1268.915527,571.336731 
	C1269.243042,570.216309 1269.570679,569.095825 1270.311646,567.570618 
	C1270.434814,567.029846 1270.558105,566.489136 1271.004150,565.363892 
	C1271.061401,564.926758 1271.118530,564.489563 1271.690308,563.571533 
	C1272.539673,560.731323 1273.389160,557.891174 1274.382080,554.930725 
	C1274.382080,554.930725 1274.424438,554.748352 1274.854736,554.422668 
	C1275.044556,553.574951 1275.234253,552.727234 1275.804077,551.410767 
	C1276.122070,550.253967 1276.440186,549.097107 1277.183105,547.369080 
	C1278.650391,542.898682 1280.117676,538.428284 1281.983887,533.313660 
	C1283.046265,530.007446 1284.108765,526.701294 1285.724609,522.929199 
	C1286.649170,519.936646 1287.573608,516.944092 1288.872437,513.387451 
	C1289.104248,512.522400 1289.335938,511.657318 1289.970459,510.327393 
	C1290.147217,509.535461 1290.323975,508.743500 1290.910278,507.365234 
	C1291.232422,506.232330 1291.554688,505.099426 1292.284302,503.563507 
	C1292.418823,503.031372 1292.553345,502.499268 1293.038452,501.353058 
	C1293.457642,499.782471 1293.876831,498.211853 1294.852051,496.163666 
	C1297.313843,488.810272 1299.775635,481.456848 1302.706421,473.557800 
	C1318.129395,428.725342 1333.540894,383.888977 1348.985962,339.064178 
	C1351.715088,331.144196 1351.779907,331.167572 1360.246704,331.168182 
	C1373.362793,331.169098 1386.478882,331.168427 1399.754639,331.168427 
	C1399.754639,306.404388 1399.754639,282.223450 1399.754639,258.226807 
	C1339.540649,258.226807 1279.786865,258.226807 1220.034424,258.226807 
	C1220.034424,282.692200 1220.034424,306.743408 1220.034424,331.575867 
	C1235.119141,331.575867 1249.776611,331.575867 1264.668213,331.575867 
	C1241.026123,400.264587 1217.654541,468.167297 1194.282837,536.070007 
	C1193.915161,536.001892 1193.547363,535.933777 1193.179565,535.865601 
	C1168.906250,467.937836 1144.632935,400.010071 1120.021118,331.135193 
	C1134.154175,331.135193 1147.338379,331.135193 1160.485718,331.135193 
	C1160.485718,306.346741 1160.485718,282.282257 1160.485718,258.161530 
	C1106.876099,258.161530 1053.633545,258.161530 1000.258545,258.161530 
	C1000.258545,282.580566 1000.258545,306.635803 1000.258545,331.518433 
	C1013.735107,331.518433 1026.900635,331.518433 1040.620361,331.518433 
	C1017.641357,400.452271 994.970520,468.461395 971.863586,537.778748 
	C947.229492,468.131958 923.133911,400.007355 898.712524,330.961853 
	C914.834290,330.961853 929.881836,330.961853 944.748291,330.961853 
	C944.748291,306.376984 944.748291,282.448486 944.748291,258.160248 
	C876.640198,258.160248 808.917358,258.160248 740.971924,258.160248 
	C740.971924,282.549683 740.971924,306.584198 740.971924,331.097809 
	C755.314331,331.097809 769.276917,331.217651 783.235229,331.027069 
	C787.601440,330.967468 789.806152,332.612305 791.262939,336.732178 
	C796.144043,350.535767 801.377563,364.214722 806.456116,378.554626 
M492.732452,420.251770 
	C478.122223,462.040405 463.511993,503.829071 448.485291,546.808899 
	C422.775665,474.228912 397.542572,402.994263 371.982574,330.836761 
	C392.081360,330.836761 410.979980,330.836761 429.726074,330.836761 
	C429.726074,306.168488 429.726074,282.116852 429.726074,258.075745 
	C353.189453,258.075745 277.086426,258.075745 200.769836,258.075745 
	C200.769836,282.441101 200.769836,306.531372 200.769836,331.095093 
	C202.536942,331.095093 203.997299,331.094177 205.457657,331.095276 
	C218.788589,331.105286 232.119583,331.098145 245.450455,331.132111 
	C254.091553,331.154144 254.089310,331.181976 257.146667,339.377838 
	C279.601288,399.571930 302.034790,459.773956 324.518524,519.957214 
	C345.429169,575.929626 366.426392,631.869812 387.250793,687.874268 
	C388.467682,691.146912 390.062927,692.005371 393.394287,691.991028 
	C421.222900,691.871338 449.053284,691.840515 476.880554,692.081116 
	C481.310211,692.119385 483.259247,690.711609 484.718323,686.597778 
	C509.805511,615.864990 535.040649,545.184692 560.245483,474.493622 
	C576.003845,430.296906 591.764587,386.101074 607.526917,341.905762 
	C611.911743,329.611237 609.204346,331.257141 623.193909,331.173859 
	C637.150574,331.090729 651.108154,331.155609 665.380493,331.155609 
	C665.380493,306.552307 665.380493,282.482147 665.380493,258.108826 
	C599.378906,258.108826 533.641296,258.108826 467.704590,258.108826 
	C467.704590,282.403259 467.704590,306.453644 467.704590,331.192688 
	C486.419952,331.192688 504.785339,331.192688 524.114685,331.192688 
	C513.520142,361.242065 503.248871,390.374298 492.732452,420.251770 
z"/>
<path fill="#000000" opacity="1.000000" stroke="none" 
	d="
M222.947296,5.870121 
	C222.510223,5.911533 222.073151,5.952944 220.947388,6.000659 
	C219.154892,6.294668 218.051071,6.582373 216.947266,6.870079 
	C216.510208,6.911513 216.073135,6.952945 214.969696,7.000738 
	C213.523453,7.307829 212.743607,7.608559 211.963745,7.909288 
	C211.520340,7.937718 211.076920,7.966146 210.040100,8.030357 
	C209.252365,8.361721 209.058044,8.657303 208.863708,8.952885 
	C208.863708,8.952884 208.404663,9.004482 207.846954,9.040907 
	C206.489746,9.361057 205.690277,9.644783 204.890793,9.928509 
	C204.890793,9.928508 204.977448,9.972663 204.566010,9.980225 
	C201.139481,10.996404 198.097427,11.931781 195.114929,13.028991 
	C189.042068,15.263085 183.001328,17.584478 176.947342,19.869900 
	C176.513031,20.015348 176.078720,20.160799 175.060272,20.184940 
	C174.272110,20.359959 174.068069,20.656284 173.864029,20.952608 
	C173.864029,20.952606 173.416000,20.992844 172.822754,21.000004 
	C171.326965,21.296103 170.377045,21.485439 169.528839,21.888702 
	C152.823486,29.830875 136.331589,38.140213 121.889908,49.929386 
	C121.889908,49.929386 121.976463,49.973404 121.594757,49.982254 
	C117.679306,52.696716 114.145569,55.402328 110.611824,58.107941 
	C110.611824,58.107941 110.289635,58.255634 109.927521,58.593697 
	C104.340195,63.264343 99.114975,67.596924 93.889748,71.929504 
	C93.889748,71.929504 93.977249,71.977905 93.641388,72.063225 
	C91.833504,73.408936 90.361481,74.669319 88.889458,75.929710 
	C88.889458,75.929710 88.975807,75.973045 88.595360,75.982040 
	C86.431602,77.644592 84.648285,79.298134 82.864975,80.951675 
	C82.512276,80.948540 82.244423,81.097740 81.653305,81.693962 
	C78.571175,84.446388 75.614204,86.663643 73.279854,89.410080 
	C67.796021,95.861984 62.592999,102.553436 57.310917,109.175537 
	C55.010906,112.059036 52.618370,114.892693 50.586082,117.959854 
	C47.909294,121.999702 45.695023,126.346718 43.005608,130.377319 
	C40.339619,134.372772 37.183441,138.041107 34.516060,142.035721 
	C32.152916,145.574738 29.878885,149.230728 28.080832,153.076035 
	C25.444668,158.713699 24.210081,165.266464 20.607588,170.113190 
	C17.539257,174.241241 16.999678,178.509293 15.886849,182.932159 
	C15.886849,182.932159 15.973389,182.977753 15.625603,183.075256 
	C12.016109,185.841293 10.753969,189.164368 10.841033,193.470520 
	C10.892183,196.000427 9.405646,198.561417 8.610750,201.108429 
	C8.610748,201.108429 8.287500,201.257065 7.904303,201.626328 
	C7.012549,203.770126 6.328299,205.515625 6.029355,207.324799 
	C5.227216,212.179260 4.589952,217.060944 3.887207,221.931824 
	C3.887207,221.931824 3.973907,221.978043 3.614674,222.085449 
	C2.503628,222.461914 1.751815,222.730957 1.000001,223.000000 
	C1.000000,149.069656 1.000000,75.139320 1.000000,1.000000 
	C81.687439,1.000000 162.375061,1.000000 243.531342,1.000003 
	C242.943726,1.680214 241.887451,2.360422 239.978668,3.023748 
	C233.733215,3.961285 228.340256,4.915703 222.947296,5.870121 
z"/>
<path fill="#000000" opacity="1.000000" stroke="none" 
	d="
M1.000010,722.468628 
	C2.682767,725.002380 4.740136,727.862305 5.950078,731.044495 
	C7.349921,734.726135 8.070942,738.675720 8.969470,742.536255 
	C11.770884,754.572876 16.765646,765.856018 22.462124,776.627808 
	C30.150665,791.166504 38.752075,805.275330 47.782185,819.030029 
	C52.583248,826.343018 58.980324,832.641418 64.895775,839.181824 
	C73.911606,849.150024 82.843140,859.225342 92.387016,868.672729 
	C97.503578,873.737549 103.778946,877.647278 109.615128,881.965088 
	C115.291153,886.164307 121.051872,890.250427 126.814270,894.331360 
	C142.918533,905.736328 160.142944,915.088440 178.872894,921.335999 
	C193.663177,926.269470 208.692963,930.484192 223.604156,935.057861 
	C224.326431,935.279419 224.930984,935.884705 225.295181,936.655640 
	C150.407806,937.000000 75.815598,937.000000 1.000000,937.000000 
	C1.000000,865.645935 1.000000,794.291626 1.000010,722.468628 
z"/>
<path fill="#000000" opacity="1.000000" stroke="none" 
	d="
M1598.000000,195.531342 
	C1597.006836,194.100372 1595.923340,192.241364 1595.045410,190.289902 
	C1594.142578,188.282669 1593.423828,186.191284 1592.653931,184.125824 
	C1591.720215,181.621201 1590.925049,179.059143 1589.878662,176.603516 
	C1587.755981,171.622070 1585.772339,166.553818 1583.245605,161.778381 
	C1579.070068,153.886475 1574.991211,145.872711 1570.006104,138.495209 
	C1561.060913,125.257263 1551.799438,112.201218 1542.025513,99.567894 
	C1536.673584,92.650261 1530.309082,86.420731 1523.856201,80.472061 
	C1513.605469,71.022156 1503.454956,61.303383 1492.225708,53.120544 
	C1481.306396,45.163555 1469.165405,38.853378 1457.415161,32.072830 
	C1436.897217,20.233007 1414.572876,12.872635 1391.921265,6.499711 
	C1385.589722,4.718385 1378.919189,4.153132 1372.419189,2.949562 
	C1371.373779,2.756015 1370.406860,2.138821 1369.701904,1.358722 
	C1445.921387,1.000000 1521.842651,1.000000 1598.000000,1.000000 
	C1598.000000,65.687370 1598.000000,130.375031 1598.000000,195.531342 
z"/>
<path fill="#000000" opacity="1.000000" stroke="none" 
	d="
M1380.468628,937.000000 
	C1381.557007,936.005676 1382.989868,934.536011 1384.690552,934.092041 
	C1399.046631,930.344666 1413.688599,927.650024 1427.218506,921.084412 
	C1432.087769,918.721558 1437.599487,917.691711 1442.496704,915.374756 
	C1452.622803,910.583801 1462.895386,906.063293 1471.409424,898.342224 
	C1474.748413,895.314270 1479.495483,893.901733 1483.240356,891.244995 
	C1490.171997,886.327271 1496.911621,881.128601 1503.589478,875.867065 
	C1508.332031,872.130310 1512.811646,868.061707 1517.462280,864.205811 
	C1527.343018,856.013855 1536.928345,847.654419 1544.154907,836.759460 
	C1550.585449,827.064758 1558.319336,818.235229 1564.761719,808.547546 
	C1570.059204,800.581177 1574.506226,792.021362 1578.963867,783.532227 
	C1583.751709,774.414917 1588.228149,765.127441 1592.585938,755.795349 
	C1593.846558,753.095703 1594.171997,749.969299 1595.036499,747.071411 
	C1595.706299,744.825928 1596.547852,742.631531 1597.656494,740.707214 
	C1598.000000,806.264221 1598.000000,871.528503 1598.000000,937.000000 
	C1525.645874,937.000000 1453.291626,937.000000 1380.468628,937.000000 
z"/>
<path fill="#FDFDFD" opacity="1.000000" stroke="none" 
	d="
M1.000001,223.468536 
	C1.751815,222.730957 2.503628,222.461914 3.591866,222.041946 
	C3.769335,227.947464 3.703059,234.008911 3.377525,240.056381 
	C3.307811,241.351456 2.298621,242.595963 1.361111,243.931885 
	C1.000000,237.312363 1.000000,230.624710 1.000001,223.468536 
z"/>
<path fill="#020303" opacity="1.000000" stroke="none" 
	d="
M1257.363037,603.616943 
	C1256.478638,606.502563 1255.594238,609.388245 1254.190918,612.737427 
	C1253.557007,613.993530 1253.442017,614.786072 1253.327148,615.578552 
	C1252.499634,618.158325 1251.672119,620.738037 1250.305908,623.734253 
	C1248.615356,627.959167 1247.463501,631.767639 1246.311523,635.576050 
	C1245.191284,639.163269 1244.071045,642.750488 1242.387695,646.735596 
	C1240.688232,650.988586 1239.551758,654.843750 1238.415405,658.698914 
	C1237.945557,660.254700 1237.475586,661.810486 1236.471191,663.737305 
	C1233.458862,671.655273 1230.981323,679.202148 1228.503662,686.748962 
	C1228.074707,690.738403 1226.088623,692.068604 1221.895630,692.030151 
	C1197.005249,691.801147 1172.111572,691.826416 1147.220337,691.985107 
	C1143.773682,692.007141 1141.891113,691.008484 1141.395264,687.177124 
	C1141.152222,686.082214 1140.732544,685.519775 1140.312866,684.957336 
	C1140.141602,684.638306 1139.970215,684.319336 1139.878296,683.367126 
	C1139.434082,681.805908 1138.910522,680.877869 1138.387085,679.949768 
	C1137.806396,678.434631 1137.225586,676.919434 1136.720459,674.658447 
	C1135.004028,669.590637 1133.212036,665.268738 1131.419922,660.946777 
	C1130.956787,659.865356 1130.493652,658.783936 1130.273193,657.125244 
	C1126.844604,646.047424 1123.308960,635.496643 1119.447021,625.066711 
	C1117.416382,619.582764 1114.814941,614.310181 1112.471191,608.942139 
	C1111.541504,606.425354 1110.611816,603.908630 1109.749512,600.621582 
	C1109.207642,596.564819 1108.598511,593.278381 1108.121216,589.940186 
	C1108.171509,589.929260 1108.089844,589.970093 1107.727905,589.791504 
	C1106.678833,584.851013 1105.910034,580.129822 1105.115967,575.253662 
	C1103.202148,575.600830 1102.083862,575.803650 1100.965698,576.006531 
	C1100.691284,575.823364 1100.516968,575.571045 1100.606689,574.590881 
	C1102.463745,566.697632 1101.244019,563.678711 1095.520142,560.935974 
	C1092.420410,552.513916 1089.320679,544.091919 1086.414795,535.168457 
	C1086.280640,534.088379 1085.952515,533.509705 1085.624512,532.930969 
	C1084.971313,531.421997 1084.318115,529.913025 1083.740234,527.680176 
	C1083.032593,525.285156 1082.249634,523.614014 1081.466797,521.942932 
	C1078.658936,514.160339 1075.851074,506.377686 1073.050537,497.886719 
	C1072.278931,496.883636 1071.500000,496.588928 1070.721069,496.294220 
	C1070.706299,496.836487 1070.691528,497.378723 1070.676880,497.920990 
	C1069.754639,501.044922 1068.832275,504.168854 1067.375000,507.738617 
	C1066.748291,509.039032 1066.656494,509.893616 1066.564697,510.748199 
	C1066.318237,511.622345 1066.071777,512.496521 1065.307007,513.783081 
	C1064.702026,515.043762 1064.615356,515.891907 1064.528687,516.740112 
	C1064.293457,517.617920 1064.058105,518.495728 1063.308105,519.763794 
	C1062.575439,521.197754 1062.357666,522.241394 1062.139771,523.285095 
	C1061.778442,524.640503 1061.416992,525.995850 1060.602295,527.678406 
	C1060.076172,528.664429 1060.003296,529.323303 1059.930420,529.982178 
	C1059.628784,531.103210 1059.327148,532.224243 1058.579712,533.672974 
	C1058.046143,534.656189 1057.958374,535.311829 1057.870605,535.967468 
	C1057.828857,536.423767 1057.786987,536.880066 1057.250732,537.743896 
	C1055.639526,541.997437 1054.522461,545.843445 1053.405518,549.689453 
	C1053.267334,550.275696 1053.129272,550.861938 1052.552490,551.727905 
	C1052.050293,552.665283 1051.986694,553.322815 1051.923096,553.980408 
	C1050.947510,557.083069 1049.971924,560.185669 1048.466919,563.720093 
	C1047.424683,566.328918 1046.911743,568.505981 1046.398926,570.683105 
	C1046.247192,571.267029 1046.095581,571.851013 1045.515869,572.719543 
	C1045.025391,573.660950 1044.962891,574.317810 1044.900391,574.974609 
	C1044.824219,575.439026 1044.748047,575.903442 1044.159424,576.785645 
	C1040.731445,583.535645 1037.815918,589.867859 1035.140747,595.677979 
	C1035.456055,595.595215 1036.644653,595.283203 1037.833252,594.971191 
	C1037.549561,596.095337 1037.265869,597.219543 1036.451172,598.630432 
	C1034.821045,598.747070 1033.721924,598.576965 1032.386963,598.370422 
	C1031.842285,600.295837 1031.332642,602.097473 1030.900513,603.625183 
	C1032.471191,603.756226 1033.624878,603.852478 1034.778564,603.948730 
	C1034.483032,605.078369 1034.187500,606.208008 1033.371094,607.761963 
	C1032.762085,609.043152 1032.674194,609.899902 1032.586182,610.756714 
	C1032.650879,611.087952 1032.590576,611.394653 1031.916748,611.808105 
	C1030.578369,611.602539 1029.728516,611.265564 1028.878540,610.928589 
	C1028.693115,612.000916 1027.963745,613.473389 1028.410522,614.080872 
	C1031.332153,618.053467 1028.114502,619.379089 1026.261353,620.479248 
	C1026.261353,622.922424 1026.744385,624.906982 1026.186523,626.534729 
	C1020.708435,642.517029 1014.941467,658.400879 1009.520935,674.402222 
	C1007.733398,679.679016 1006.714172,685.215942 1005.343689,690.633972 
	C1003.916077,691.075134 1002.489136,691.898071 1001.060669,691.900879 
	C974.021301,691.953247 946.981750,691.908813 919.509277,691.380981 
	C918.183105,689.234436 917.289856,687.591309 916.396606,685.948120 
	C916.161621,685.391724 915.926636,684.835266 915.756470,683.575195 
	C914.954773,680.903564 914.088135,678.935730 913.221436,676.967834 
	C912.532593,675.203064 911.843750,673.438293 911.376221,671.089844 
	C910.565247,666.027832 909.533020,661.549561 908.321472,656.293335 
	C908.320984,656.293274 907.058960,656.171204 905.796875,656.049072 
	C905.796875,656.049072 905.623596,655.893738 905.741455,655.396118 
	C905.062744,653.246216 904.266235,651.593872 903.469727,649.941528 
	C902.179932,646.443726 900.890076,642.945984 899.680725,638.767273 
	C899.326355,637.371887 898.891541,636.657410 898.456726,635.942932 
	C897.843750,634.438110 897.230774,632.933228 896.690063,630.715942 
	C895.977966,628.317932 895.193481,626.632446 894.408997,624.946960 
	C893.988098,623.851868 893.567261,622.756775 893.382568,621.101685 
	C892.581970,618.340576 891.545105,616.139526 890.508301,613.938416 
	C890.053711,612.848022 889.599121,611.757690 889.359436,610.163269 
	C889.184570,609.088684 888.794739,608.518066 888.404907,607.947449 
	C887.124512,604.449402 885.844177,600.951416 884.668701,596.770142 
	C884.339539,595.371887 883.905518,594.656982 883.471497,593.942017 
	C882.197693,590.438416 880.923950,586.934753 879.711548,582.761414 
	C879.370911,581.372559 878.969055,580.653381 878.567200,579.934204 
	C878.093018,578.848999 877.618835,577.763794 877.345337,576.166870 
	C877.138794,575.088806 876.731628,574.522400 876.324463,573.955933 
	C876.081726,573.412903 875.838989,572.869934 875.692139,571.656250 
	C875.020142,569.303772 874.252319,567.622009 873.484436,565.940247 
	C873.040344,564.848267 872.596191,563.756226 872.361755,562.159302 
	C872.185242,561.085144 871.799133,560.515869 871.413025,559.946594 
	C870.840515,558.427063 870.268005,556.907532 869.751831,554.671570 
	C869.016357,552.285095 868.224548,550.615051 867.432739,548.945007 
	C866.137390,545.450928 864.842041,541.956787 863.657349,537.736450 
	C862.984375,535.322083 862.200745,533.634094 861.417114,531.946045 
	C860.088989,528.460754 858.760864,524.975464 857.562500,520.800781 
	C857.052734,518.717224 856.413147,517.323181 855.773499,515.929077 
	C854.812622,513.329224 853.851685,510.729401 852.927368,507.358826 
	C851.813049,503.704895 850.662231,500.821716 849.511475,497.938538 
	C849.053162,496.846375 848.594849,495.754181 848.375977,494.119019 
	C847.887878,492.365509 847.160339,491.154999 846.432800,489.944489 
	C846.013733,488.847260 845.594666,487.750031 845.391968,486.143982 
	C845.182068,485.075043 844.755798,484.514954 844.329529,483.954834 
	C844.090454,483.399689 843.851440,482.844513 843.724487,481.609802 
	C843.049744,479.267059 842.262939,477.603882 841.476196,475.940704 
	C840.530212,473.428741 839.584229,470.916779 838.729797,467.740051 
	C838.457947,466.359924 838.094543,465.644531 837.731079,464.929138 
	C837.177124,463.533051 836.623169,462.136932 836.298157,460.146515 
	C835.816162,457.243134 834.888611,454.973541 834.458191,452.613312 
	C834.067993,450.473602 830.842163,442.756592 829.135925,440.978882 
	C825.699036,431.394043 822.262207,421.809174 818.880371,411.499084 
	C818.425171,409.831665 817.914856,408.889496 817.404541,407.947327 
	C817.093079,407.112274 816.781616,406.277252 816.592773,404.727661 
	C815.646851,401.654816 814.578308,399.296509 813.509766,396.938232 
	C812.881409,395.429260 812.253113,393.920288 811.712280,391.745941 
	C811.401062,390.364563 811.002380,389.648529 810.603760,388.932526 
	C809.628113,386.425354 808.652405,383.918182 807.744141,380.727295 
	C807.366455,379.342834 806.921265,378.642120 806.476074,377.941437 
	C801.377563,364.214722 796.144043,350.535767 791.262939,336.732178 
	C789.806152,332.612305 787.601440,330.967468 783.235229,331.027069 
	C769.276917,331.217651 755.314331,331.097809 740.971924,331.097809 
	C740.971924,306.584198 740.971924,282.549683 740.971924,258.160248 
	C808.917358,258.160248 876.640198,258.160248 944.748291,258.160248 
	C944.748291,282.448486 944.748291,306.376984 944.748291,330.961853 
	C929.881836,330.961853 914.834290,330.961853 898.712524,330.961853 
	C923.133911,400.007355 947.229492,468.131958 971.863586,537.778748 
	C994.970520,468.461395 1017.641357,400.452271 1040.620361,331.518433 
	C1026.900635,331.518433 1013.735107,331.518433 1000.258545,331.518433 
	C1000.258545,306.635803 1000.258545,282.580566 1000.258545,258.161530 
	C1053.633545,258.161530 1106.876099,258.161530 1160.485718,258.161530 
	C1160.485718,282.282257 1160.485718,306.346741 1160.485718,331.135193 
	C1147.338379,331.135193 1134.154175,331.135193 1120.021118,331.135193 
	C1144.632935,400.010071 1168.906250,467.937836 1193.179565,535.865601 
	C1193.547363,535.933777 1193.915161,536.001892 1194.282837,536.070007 
	C1217.654541,468.167297 1241.026123,400.264587 1264.668213,331.575867 
	C1249.776611,331.575867 1235.119141,331.575867 1220.034424,331.575867 
	C1220.034424,306.743408 1220.034424,282.692200 1220.034424,258.226807 
	C1279.786865,258.226807 1339.540649,258.226807 1399.754639,258.226807 
	C1399.754639,282.223450 1399.754639,306.404388 1399.754639,331.168427 
	C1386.478882,331.168427 1373.362793,331.169098 1360.246704,331.168182 
	C1351.779907,331.167572 1351.715088,331.144196 1348.985962,339.064178 
	C1333.540894,383.888977 1318.129395,428.725342 1302.063965,473.806641 
	C1300.084106,475.120972 1297.875732,475.978333 1297.562744,477.288452 
	C1296.306030,482.549652 1295.630859,487.950134 1294.753906,493.301270 
	C1294.572266,494.409851 1294.447144,495.527679 1294.295898,496.641235 
	C1293.876831,498.211853 1293.457642,499.782471 1292.595703,501.688477 
	C1292.061035,502.671417 1291.968994,503.318970 1291.876953,503.966522 
	C1291.554688,505.099426 1291.232422,506.232330 1290.370972,507.783478 
	C1289.743652,509.065216 1289.655640,509.928711 1289.567627,510.792236 
	C1289.335938,511.657318 1289.104248,512.522400 1288.361328,513.771667 
	C1286.957275,517.235596 1286.064209,520.315369 1285.171143,523.395081 
	C1284.108765,526.701294 1283.046265,530.007446 1281.457520,533.723022 
	C1280.337769,535.274841 1279.939453,537.229736 1279.118652,537.427002 
	C1274.069458,538.640686 1276.484253,544.495789 1273.083496,546.737732 
	C1272.330933,547.233887 1272.464600,549.074402 1272.302368,549.797058 
	C1274.047119,549.070007 1275.402588,548.505188 1276.758179,547.940308 
	C1276.440186,549.097107 1276.122070,550.253967 1275.249268,551.868652 
	C1274.604492,553.133789 1274.514526,553.941040 1274.424438,554.748352 
	C1274.424438,554.748352 1274.382080,554.930725 1273.967896,554.939819 
	C1272.594604,554.467773 1271.635498,553.986633 1269.586792,552.958923 
	C1270.549438,555.615723 1271.154297,557.284973 1271.848755,559.201782 
	C1270.564331,559.782410 1269.328369,560.341125 1267.135620,561.332458 
	C1268.948730,562.553101 1270.062256,563.302795 1271.175781,564.052429 
	C1271.118530,564.489563 1271.061401,564.926758 1270.574829,565.680908 
	C1270.063110,566.657166 1269.980713,567.316284 1269.898193,567.975403 
	C1269.570679,569.095825 1269.243042,570.216309 1268.397217,571.728516 
	C1266.000854,577.907043 1264.122925,583.693787 1262.244995,589.480530 
	C1262.017578,590.425781 1261.790161,591.370972 1261.097900,592.733765 
	C1260.351807,594.417786 1260.070679,595.684326 1259.789551,596.950867 
	C1259.463379,598.084656 1259.137207,599.218506 1258.286865,600.767334 
	C1257.629517,601.993958 1257.496338,602.805420 1257.363037,603.616943 
M1030.286377,607.455200 
	C1030.012451,607.716675 1029.735840,607.975647 1029.479126,608.253113 
	C1029.472046,608.260742 1029.680176,608.467346 1029.787964,608.581177 
	C1030.061890,608.319458 1030.335815,608.057739 1030.286377,607.455200 
M1036.572266,590.514893 
	C1036.572266,590.514893 1036.475220,590.570068 1036.572266,590.514893 
z"/>
<path fill="#030403" opacity="1.000000" stroke="none" 
	d="
M492.855042,419.879150 
	C503.248871,390.374298 513.520142,361.242065 524.114685,331.192688 
	C504.785339,331.192688 486.419952,331.192688 467.704590,331.192688 
	C467.704590,306.453644 467.704590,282.403259 467.704590,258.108826 
	C533.641296,258.108826 599.378906,258.108826 665.380493,258.108826 
	C665.380493,282.482147 665.380493,306.552307 665.380493,331.155609 
	C651.108154,331.155609 637.150574,331.090729 623.193909,331.173859 
	C609.204346,331.257141 611.911743,329.611237 607.526917,341.905762 
	C591.764587,386.101074 576.003845,430.296906 560.245483,474.493622 
	C535.040649,545.184692 509.805511,615.864990 484.718323,686.597778 
	C483.259247,690.711609 481.310211,692.119385 476.880554,692.081116 
	C449.053284,691.840515 421.222900,691.871338 393.394287,691.991028 
	C390.062927,692.005371 388.467682,691.146912 387.250793,687.874268 
	C366.426392,631.869812 345.429169,575.929626 324.518524,519.957214 
	C302.034790,459.773956 279.601288,399.571930 257.146667,339.377838 
	C254.089310,331.181976 254.091553,331.154144 245.450455,331.132111 
	C232.119583,331.098145 218.788589,331.105286 205.457657,331.095276 
	C203.997299,331.094177 202.536942,331.095093 200.769836,331.095093 
	C200.769836,306.531372 200.769836,282.441101 200.769836,258.075745 
	C277.086426,258.075745 353.189453,258.075745 429.726074,258.075745 
	C429.726074,282.116852 429.726074,306.168488 429.726074,330.836761 
	C410.979980,330.836761 392.081360,330.836761 371.982574,330.836761 
	C397.542572,402.994263 422.775665,474.228912 448.485291,546.808899 
	C463.511993,503.829071 478.122223,462.040405 492.855042,419.879150 
z"/>
<path fill="#FDFDFD" opacity="1.000000" stroke="none" 
	d="
M16.251724,182.914551 
	C16.999678,178.509293 17.539257,174.241241 20.607588,170.113190 
	C24.210081,165.266464 25.444668,158.713699 28.080832,153.076035 
	C29.878885,149.230728 32.152916,145.574738 34.516060,142.035721 
	C37.183441,138.041107 40.339619,134.372772 43.005608,130.377319 
	C45.695023,126.346718 47.909294,121.999702 50.586082,117.959854 
	C52.618370,114.892693 55.010906,112.059036 57.310917,109.175537 
	C62.592999,102.553436 67.796021,95.861984 73.279854,89.410080 
	C75.614204,86.663643 78.571175,84.446388 81.598557,81.926682 
	C81.693527,82.951599 81.733223,84.255501 81.126549,85.088829 
	C78.061188,89.299408 74.960808,93.499077 71.618553,97.489708 
	C67.651047,102.226875 63.181263,106.556358 59.374149,111.411469 
	C54.961594,117.038727 50.892406,122.951958 46.929482,128.910843 
	C42.000492,136.322357 37.330666,143.906296 32.556446,151.420547 
	C32.206478,151.971375 31.765724,152.525421 31.622511,153.137680 
	C29.161018,163.661301 21.627720,171.840256 18.276072,181.956299 
	C18.127750,182.403976 17.187805,182.589371 16.251724,182.914551 
z"/>
<path fill="#1F1F1F" opacity="1.000000" stroke="none" 
	d="
M1005.611511,690.389587 
	C1006.714172,685.215942 1007.733398,679.679016 1009.520935,674.402222 
	C1014.941467,658.400879 1020.708435,642.517029 1026.186523,626.534729 
	C1026.744385,624.906982 1026.261353,622.922424 1026.261353,620.479248 
	C1028.114502,619.379089 1031.332153,618.053467 1028.410522,614.080872 
	C1027.963745,613.473389 1028.693115,612.000916 1028.878540,610.928589 
	C1029.728516,611.265564 1030.578369,611.602539 1031.747314,611.976562 
	C1028.549927,622.861816 1025.129639,633.742188 1021.494385,644.550171 
	C1016.372864,659.776611 1011.092041,674.949463 1005.611511,690.389587 
z"/>
<path fill="#FDFDFD" opacity="1.000000" stroke="none" 
	d="
M122.296692,49.951111 
	C136.331589,38.140213 152.823486,29.830875 169.528839,21.888702 
	C170.377045,21.485439 171.326965,21.296103 172.612381,21.079529 
	C168.322739,23.938337 163.802521,27.030447 158.946869,29.449240 
	C147.967575,34.918476 137.126541,40.523830 127.733582,48.594181 
	C126.541817,49.618145 124.403343,49.540253 122.296692,49.951111 
z"/>
<path fill="#1F1F1E" opacity="1.000000" stroke="none" 
	d="
M1112.479980,609.307129 
	C1114.814941,614.310181 1117.416382,619.582764 1119.447021,625.066711 
	C1123.308960,635.496643 1126.844604,646.047424 1130.269043,656.770630 
	C1124.177856,641.219543 1118.333374,625.445862 1112.479980,609.307129 
z"/>
<path fill="#1F1F1E" opacity="1.000000" stroke="none" 
	d="
M1107.989258,589.991943 
	C1108.598511,593.278381 1109.207642,596.564819 1109.716064,600.269165 
	C1106.721802,592.723938 1103.828369,584.760742 1100.950317,576.402039 
	C1102.083862,575.803650 1103.202148,575.600830 1105.115967,575.253662 
	C1105.910034,580.129822 1106.678833,584.851013 1107.723877,589.786072 
	C1108.000000,590.000000 1107.989258,589.991943 1107.989258,589.991943 
z"/>
<path fill="#FDFDFD" opacity="1.000000" stroke="none" 
	d="
M4.282877,221.946625 
	C4.589952,217.060944 5.227216,212.179260 6.029355,207.324799 
	C6.328299,205.515625 7.012549,203.770126 7.822701,201.784393 
	C11.113438,207.076981 9.181975,212.700134 8.240846,218.197983 
	C7.998414,219.614227 5.915816,220.715485 4.282877,221.946625 
z"/>
<path fill="#181817" opacity="1.000000" stroke="none" 
	d="
M1294.573975,496.402466 
	C1294.447144,495.527679 1294.572266,494.409851 1294.753906,493.301270 
	C1295.630859,487.950134 1296.306030,482.549652 1297.562744,477.288452 
	C1297.875732,475.978333 1300.084106,475.120972 1301.829346,474.079468 
	C1299.775635,481.456848 1297.313843,488.810272 1294.573975,496.402466 
z"/>
<path fill="#FDFDFD" opacity="1.000000" stroke="none" 
	d="
M8.934252,201.314957 
	C9.405646,198.561417 10.892183,196.000427 10.841033,193.470520 
	C10.753969,189.164368 12.016109,185.841293 15.603109,183.031830 
	C14.928734,188.819443 15.891755,195.240921 11.659302,200.345749 
	C11.140632,200.971344 10.071684,201.140701 8.934252,201.314957 
z"/>
<path fill="#181817" opacity="1.000000" stroke="none" 
	d="
M1276.970703,547.654663 
	C1275.402588,548.505188 1274.047119,549.070007 1272.302368,549.797058 
	C1272.464600,549.074402 1272.330933,547.233887 1273.083496,546.737732 
	C1276.484253,544.495789 1274.069458,538.640686 1279.118652,537.427002 
	C1279.939453,537.229736 1280.337769,535.274841 1281.258057,534.045166 
	C1280.117676,538.428284 1278.650391,542.898682 1276.970703,547.654663 
z"/>
<path fill="#FDFDFD" opacity="1.000000" stroke="none" 
	d="
M177.127686,20.131687 
	C183.001328,17.584478 189.042068,15.263085 195.114929,13.028991 
	C198.097427,11.931781 201.139481,10.996404 204.543594,9.937075 
	C204.554779,10.545470 204.316025,11.622266 203.778305,11.801348 
	C194.977219,14.732460 186.138382,17.550209 177.127686,20.131687 
z"/>
<path fill="#FDFDFD" opacity="1.000000" stroke="none" 
	d="
M94.273331,71.943192 
	C99.114975,67.596924 104.340195,63.264343 109.845520,58.750801 
	C110.265266,58.864464 110.578133,59.376381 110.519897,59.422817 
	C105.250580,63.623833 99.952789,67.789162 94.273331,71.943192 
z"/>
<path fill="#1F1F1E" opacity="1.000000" stroke="none" 
	d="
M1095.532349,561.299438 
	C1101.244019,563.678711 1102.463745,566.697632 1100.607422,574.356323 
	C1098.811035,570.407959 1097.177734,566.035461 1095.532349,561.299438 
z"/>
<path fill="#1F1F1F" opacity="1.000000" stroke="none" 
	d="
M1038.057617,594.701416 
	C1036.644653,595.283203 1035.456055,595.595215 1035.140747,595.677979 
	C1037.815918,589.867859 1040.731445,583.535645 1043.932983,577.062073 
	C1042.239990,582.757690 1040.261108,588.594604 1038.057617,594.701416 
z"/>
<path fill="#1F1F1E" opacity="1.000000" stroke="none" 
	d="
M1228.750000,686.485657 
	C1230.981323,679.202148 1233.458862,671.655273 1236.269043,664.027161 
	C1234.066528,671.371399 1231.531494,678.796875 1228.750000,686.485657 
z"/>
<path fill="#1F1F1F" opacity="1.000000" stroke="none" 
	d="
M829.126953,441.361084 
	C830.842163,442.756592 834.067993,450.473602 834.458191,452.613312 
	C834.888611,454.973541 835.816162,457.243134 836.289612,459.768311 
	C833.740723,453.904053 831.429321,447.823669 829.126953,441.361084 
z"/>
<path fill="#1F1F1F" opacity="1.000000" stroke="none" 
	d="
M905.778076,656.447266 
	C907.058960,656.171204 908.320984,656.293274 908.321472,656.293335 
	C909.533020,661.549561 910.565247,666.027832 911.360413,670.735107 
	C909.335266,666.257812 907.547241,661.551636 905.778076,656.447266 
z"/>
<path fill="#181817" opacity="1.000000" stroke="none" 
	d="
M1271.433105,563.812012 
	C1270.062256,563.302795 1268.948730,562.553101 1267.135620,561.332458 
	C1269.328369,560.341125 1270.564331,559.782410 1271.848755,559.201782 
	C1271.154297,557.284973 1270.549438,555.615723 1269.586792,552.958923 
	C1271.635498,553.986633 1272.594604,554.467773 1273.896118,554.999939 
	C1273.389160,557.891174 1272.539673,560.731323 1271.433105,563.812012 
z"/>
<path fill="#FDFDFD" opacity="1.000000" stroke="none" 
	d="
M223.172211,6.162031 
	C228.340256,4.915703 233.733215,3.961285 239.560715,3.079389 
	C239.807953,3.597635 239.669495,4.403159 239.426193,4.436182 
	C234.090179,5.160440 228.742554,5.798988 223.172211,6.162031 
z"/>
<path fill="#232422" opacity="1.000000" stroke="none" 
	d="
M1262.522461,589.256958 
	C1264.122925,583.693787 1266.000854,577.907043 1268.202881,572.024536 
	C1266.617920,577.630371 1264.708862,583.331909 1262.522461,589.256958 
z"/>
<path fill="#FDFDFD" opacity="1.000000" stroke="none" 
	d="
M110.927437,58.315544 
	C114.145569,55.402328 117.679306,52.696716 121.572487,49.939110 
	C120.158722,54.980991 115.735710,56.795166 110.927437,58.315544 
z"/>
<path fill="#1F1F1F" opacity="1.000000" stroke="none" 
	d="
M1035.009033,603.700806 
	C1033.624878,603.852478 1032.471191,603.756226 1030.900513,603.625183 
	C1031.332642,602.097473 1031.842285,600.295837 1032.386963,598.370422 
	C1033.721924,598.576965 1034.821045,598.747070 1036.265137,598.930176 
	C1036.153442,600.446472 1035.696411,601.949707 1035.009033,603.700806 
z"/>
<path fill="#1F1F1E" opacity="1.000000" stroke="none" 
	d="
M1131.404663,661.317871 
	C1133.212036,665.268738 1135.004028,669.590637 1136.674683,674.317871 
	C1134.831909,670.378479 1133.110718,666.033691 1131.404663,661.317871 
z"/>
<path fill="#1F1F1F" opacity="1.000000" stroke="none" 
	d="
M1053.645264,549.419067 
	C1054.522461,545.843445 1055.639526,541.997437 1057.069824,538.038818 
	C1056.217041,541.666992 1055.051025,545.407837 1053.645264,549.419067 
z"/>
<path fill="#232422" opacity="1.000000" stroke="none" 
	d="
M1246.568359,635.326843 
	C1247.463501,631.767639 1248.615356,627.959167 1250.074463,624.033081 
	C1249.196167,627.636108 1248.010742,631.356873 1246.568359,635.326843 
z"/>
<path fill="#1F1F1E" opacity="1.000000" stroke="none" 
	d="
M1238.671143,658.441406 
	C1239.551758,654.843750 1240.688232,650.988586 1242.144043,647.032654 
	C1241.284546,650.682556 1240.105713,654.433228 1238.671143,658.441406 
z"/>
<path fill="#FDFDFD" opacity="1.000000" stroke="none" 
	d="
M83.246559,80.961624 
	C84.648285,79.298134 86.431602,77.644592 88.573486,75.938980 
	C88.678238,79.161240 86.865082,80.808983 83.246559,80.961624 
z"/>
<path fill="#1F1F1F" opacity="1.000000" stroke="none" 
	d="
M849.490723,498.301117 
	C850.662231,500.821716 851.813049,503.704895 852.887451,506.992432 
	C851.697327,504.485779 850.583679,501.574738 849.490723,498.301117 
z"/>
<path fill="#181817" opacity="1.000000" stroke="none" 
	d="
M1285.447876,523.162109 
	C1286.064209,520.315369 1286.957275,517.235596 1288.174194,514.053711 
	C1287.573608,516.944092 1286.649170,519.936646 1285.447876,523.162109 
z"/>
<path fill="#1F1F1F" opacity="1.000000" stroke="none" 
	d="
M890.514038,614.288696 
	C891.545105,616.139526 892.581970,618.340576 893.386841,620.748291 
	C892.276489,618.849609 891.398132,616.744324 890.514038,614.288696 
z"/>
<path fill="#1F1F1F" opacity="1.000000" stroke="none" 
	d="
M813.495911,397.292908 
	C814.578308,399.296509 815.646851,401.654816 816.561035,404.392822 
	C815.431824,402.397552 814.456909,400.022583 813.495911,397.292908 
z"/>
<path fill="#FDFDFD" opacity="1.000000" stroke="none" 
	d="
M89.291489,75.945450 
	C90.361481,74.669319 91.833504,73.408936 93.617218,72.019455 
	C94.291855,75.093788 92.652397,76.213860 89.291489,75.945450 
z"/>
<path fill="#1F1F1F" opacity="1.000000" stroke="none" 
	d="
M1046.651367,570.430664 
	C1046.911743,568.505981 1047.424683,566.328918 1048.283447,564.050354 
	C1048.054321,566.025391 1047.479126,568.101807 1046.651367,570.430664 
z"/>
<path fill="#1F1F1F" opacity="1.000000" stroke="none" 
	d="
M913.193054,677.334961 
	C914.088135,678.935730 914.954773,680.903564 915.723511,683.272339 
	C914.805298,681.682861 913.984985,679.692444 913.193054,677.334961 
z"/>
<path fill="#1F1F1F" opacity="1.000000" stroke="none" 
	d="
M916.384399,686.287964 
	C917.289856,687.591309 918.183105,689.234436 919.071228,691.217407 
	C918.168213,689.914124 917.270203,688.270996 916.384399,686.287964 
z"/>
<path fill="#1F1F1F" opacity="1.000000" stroke="none" 
	d="
M903.454285,650.287598 
	C904.266235,651.593872 905.062744,653.246216 905.749878,655.280090 
	C904.906616,653.985596 904.172729,652.309631 903.454285,650.287598 
z"/>
<path fill="#1F1F1E" opacity="1.000000" stroke="none" 
	d="
M1081.440186,522.289062 
	C1082.249634,523.614014 1083.032593,525.285156 1083.697754,527.331299 
	C1082.857910,526.015930 1082.135620,524.325562 1081.440186,522.289062 
z"/>
<path fill="#1F1F1F" opacity="1.000000" stroke="none" 
	d="
M873.468994,566.286255 
	C874.252319,567.622009 875.020142,569.303772 875.659668,571.358826 
	C874.838806,570.032227 874.146240,568.332275 873.468994,566.286255 
z"/>
<path fill="#1F1F1F" opacity="1.000000" stroke="none" 
	d="
M867.420654,549.292236 
	C868.224548,550.615051 869.016357,552.285095 869.690918,554.331543 
	C868.851990,553.018494 868.130310,551.328979 867.420654,549.292236 
z"/>
<path fill="#1F1F1F" opacity="1.000000" stroke="none" 
	d="
M841.487305,476.285309 
	C842.262939,477.603882 843.049744,479.267059 843.725708,481.304718 
	C842.909363,479.996094 842.203918,478.312988 841.487305,476.285309 
z"/>
<path fill="#1F1F1F" opacity="1.000000" stroke="none" 
	d="
M894.390137,625.294189 
	C895.193481,626.632446 895.977966,628.317932 896.624390,630.377808 
	C895.781372,629.048645 895.076294,627.345093 894.390137,625.294189 
z"/>
<path fill="#1F1F1F" opacity="1.000000" stroke="none" 
	d="
M861.407593,532.294312 
	C862.200745,533.634094 862.984375,535.322083 863.626770,537.384033 
	C862.789673,536.052856 862.093872,534.347717 861.407593,532.294312 
z"/>
<path fill="#232422" opacity="1.000000" stroke="none" 
	d="
M1259.989014,596.705994 
	C1260.070679,595.684326 1260.351807,594.417786 1260.881592,593.030823 
	C1260.816406,594.093933 1260.502441,595.277527 1259.989014,596.705994 
z"/>
<path fill="#1F1F1F" opacity="1.000000" stroke="none" 
	d="
M846.420410,490.262482 
	C847.160339,491.154999 847.887878,492.365509 848.395752,493.762695 
	C847.586670,492.826416 846.997375,491.703461 846.420410,490.262482 
z"/>
<path fill="#1F1F1F" opacity="1.000000" stroke="none" 
	d="
M855.710205,516.248535 
	C856.413147,517.323181 857.052734,518.717224 857.530334,520.442688 
	C856.794495,519.372070 856.220703,517.970032 855.710205,516.248535 
z"/>
<path fill="#FDFDFD" opacity="1.000000" stroke="none" 
	d="
M217.151276,7.149919 
	C218.051071,6.582373 219.154892,6.294668 220.626968,6.079432 
	C219.781921,6.577855 218.568619,7.003808 217.151276,7.149919 
z"/>
<path fill="#1F1F1E" opacity="1.000000" stroke="none" 
	d="
M1071.026733,497.629913 
	C1070.691528,497.378723 1070.706299,496.836487 1070.721069,496.294220 
	C1071.500000,496.588928 1072.278931,496.883636 1073.064209,497.501465 
	C1072.505981,497.662659 1071.941284,497.500732 1071.026733,497.629913 
z"/>
<path fill="#FDFDFD" opacity="1.000000" stroke="none" 
	d="
M212.154739,8.166045 
	C212.743607,7.608559 213.523453,7.307829 214.649261,7.079532 
	C214.112061,7.575576 213.228897,7.999189 212.154739,8.166045 
z"/>
<path fill="#1F1F1E" opacity="1.000000" stroke="none" 
	d="
M1062.401245,523.107544 
	C1062.357666,522.241394 1062.575439,521.197754 1063.109619,520.042297 
	C1063.171631,520.930359 1062.917114,521.930237 1062.401245,523.107544 
z"/>
<path fill="#1F1F1F" opacity="1.000000" stroke="none" 
	d="
M817.401245,408.274200 
	C817.914856,408.889496 818.425171,409.831665 818.849976,411.134277 
	C818.308960,410.530212 817.853455,409.565643 817.401245,408.274200 
z"/>
<path fill="#1F1F1E" opacity="1.000000" stroke="none" 
	d="
M1138.382080,680.274414 
	C1138.910522,680.877869 1139.434082,681.805908 1139.872192,683.092285 
	C1139.316772,682.500122 1138.846924,681.549622 1138.382080,680.274414 
z"/>
<path fill="#1F1F1F" opacity="1.000000" stroke="none" 
	d="
M898.443970,636.250122 
	C898.891541,636.657410 899.326355,637.371887 899.615601,638.416260 
	C899.123718,638.016541 898.777405,637.286926 898.443970,636.250122 
z"/>
<path fill="#1F1F1E" opacity="1.000000" stroke="none" 
	d="
M1140.277832,685.245239 
	C1140.732544,685.519775 1141.152222,686.082214 1141.362427,686.799866 
	C1140.849609,686.481018 1140.546143,686.007019 1140.277832,685.245239 
z"/>
<path fill="#1F1F1F" opacity="1.000000" stroke="none" 
	d="
M1032.796753,610.530762 
	C1032.674194,609.899902 1032.762085,609.043152 1033.183594,608.061890 
	C1033.347290,608.726562 1033.177246,609.515686 1032.796753,610.530762 
z"/>
<path fill="#232422" opacity="1.000000" stroke="none" 
	d="
M1253.560303,615.388672 
	C1253.442017,614.786072 1253.557007,613.993530 1253.958740,613.055664 
	C1254.094727,613.673157 1253.944092,614.436035 1253.560303,615.388672 
z"/>
<path fill="#1F1F1F" opacity="1.000000" stroke="none" 
	d="
M888.368042,608.227173 
	C888.794739,608.518066 889.184570,609.088684 889.362915,609.807556 
	C888.878052,609.472900 888.604614,608.989929 888.368042,608.227173 
z"/>
<path fill="#232422" opacity="1.000000" stroke="none" 
	d="
M1257.607666,603.432373 
	C1257.496338,602.805420 1257.629517,601.993958 1258.064941,601.048767 
	C1258.195557,601.692688 1258.023926,602.470276 1257.607666,603.432373 
z"/>
<path fill="#181817" opacity="1.000000" stroke="none" 
	d="
M1274.639648,554.585510 
	C1274.514526,553.941040 1274.604492,553.133789 1275.059326,552.103027 
	C1275.234253,552.727234 1275.044556,553.574951 1274.639648,554.585510 
z"/>
<path fill="#1F1F1E" opacity="1.000000" stroke="none" 
	d="
M1085.575684,533.203857 
	C1085.952515,533.509705 1086.280640,534.088379 1086.407715,534.803833 
	C1085.980103,534.452576 1085.753540,533.964600 1085.575684,533.203857 
z"/>
<path fill="#1F1F1F" opacity="1.000000" stroke="none" 
	d="
M810.574768,389.236572 
	C811.002380,389.648529 811.401062,390.364563 811.663208,391.401550 
	C811.199707,390.995209 810.872742,390.267914 810.574768,389.236572 
z"/>
<path fill="#1F1F1F" opacity="1.000000" stroke="none" 
	d="
M837.690186,465.228149 
	C838.094543,465.644531 838.457947,466.359924 838.693848,467.386414 
	C838.260681,466.974060 837.954956,466.250610 837.690186,465.228149 
z"/>
<path fill="#1F1F1F" opacity="1.000000" stroke="none" 
	d="
M844.308228,484.238586 
	C844.755798,484.514954 845.182068,485.075043 845.398254,485.790283 
	C844.887756,485.471039 844.587341,484.996674 844.308228,484.238586 
z"/>
<path fill="#1F1F1F" opacity="1.000000" stroke="none" 
	d="
M806.466064,378.248047 
	C806.921265,378.642120 807.366455,379.342834 807.684021,380.375519 
	C807.189636,379.989868 806.822876,379.272247 806.466064,378.248047 
z"/>
<path fill="#181817" opacity="1.000000" stroke="none" 
	d="
M1292.080566,503.765015 
	C1291.968994,503.318970 1292.061035,502.671417 1292.420532,501.995514 
	C1292.553345,502.499268 1292.418823,503.031372 1292.080566,503.765015 
z"/>
<path fill="#1F1F1E" opacity="1.000000" stroke="none" 
	d="
M1066.763428,510.514954 
	C1066.656494,509.893616 1066.748291,509.039032 1067.172241,508.060730 
	C1067.323608,508.718567 1067.142944,509.500153 1066.763428,510.514954 
z"/>
<path fill="#181817" opacity="1.000000" stroke="none" 
	d="
M1289.769043,510.559814 
	C1289.655640,509.928711 1289.743652,509.065216 1290.166138,508.076630 
	C1290.323975,508.743500 1290.147217,509.535461 1289.769043,510.559814 
z"/>
<path fill="#1F1F1E" opacity="1.000000" stroke="none" 
	d="
M1064.728027,516.508484 
	C1064.615356,515.891907 1064.702026,515.043762 1065.111572,514.063477 
	C1065.265503,514.713257 1065.096436,515.495056 1064.728027,516.508484 
z"/>
<path fill="#1F1F1F" opacity="1.000000" stroke="none" 
	d="
M1060.129883,529.777710 
	C1060.003296,529.323303 1060.076172,528.664429 1060.420166,527.980713 
	C1060.570557,528.494995 1060.449951,529.034119 1060.129883,529.777710 
z"/>
<path fill="#1F1F1F" opacity="1.000000" stroke="none" 
	d="
M1058.077881,535.767761 
	C1057.958374,535.311829 1058.046143,534.656189 1058.402832,533.976990 
	C1058.543091,534.491638 1058.414185,535.029846 1058.077881,535.767761 
z"/>
<path fill="#1F1F1F" opacity="1.000000" stroke="none" 
	d="
M1052.125244,553.779175 
	C1051.986694,553.322815 1052.050293,552.665283 1052.380371,551.979004 
	C1052.540405,552.492859 1052.433960,553.035400 1052.125244,553.779175 
z"/>
<path fill="#1F1F1F" opacity="1.000000" stroke="none" 
	d="
M871.376587,560.225525 
	C871.799133,560.515869 872.185242,561.085144 872.364868,561.804321 
	C871.885620,561.470886 871.612915,560.987671 871.376587,560.225525 
z"/>
<path fill="#232422" opacity="1.000000" stroke="none" 
	d="
M1270.104980,567.773010 
	C1269.980713,567.316284 1270.063110,566.657166 1270.413452,565.973145 
	C1270.558105,566.489136 1270.434814,567.029846 1270.104980,567.773010 
z"/>
<path fill="#1F1F1F" opacity="1.000000" stroke="none" 
	d="
M1045.116821,574.782715 
	C1044.962891,574.317810 1045.025391,573.660950 1045.354492,572.976074 
	C1045.525269,573.495544 1045.429199,574.043152 1045.116821,574.782715 
z"/>
<path fill="#1F1F1F" opacity="1.000000" stroke="none" 
	d="
M876.278198,574.239868 
	C876.731628,574.522400 877.138794,575.088806 877.335388,575.809204 
	C876.827209,575.483459 876.529602,575.003662 876.278198,574.239868 
z"/>
<path fill="#1F1F1F" opacity="1.000000" stroke="none" 
	d="
M878.550659,580.238892 
	C878.969055,580.653381 879.370911,581.372559 879.633057,582.414062 
	C879.173584,582.005432 878.853882,581.274475 878.550659,580.238892 
z"/>
<path fill="#FDFDFD" opacity="1.000000" stroke="none" 
	d="
M205.181656,9.962257 
	C205.690277,9.644783 206.489746,9.361057 207.640808,9.145067 
	C207.152420,9.473871 206.312469,9.734939 205.181656,9.962257 
z"/>
<path fill="#1F1F1F" opacity="1.000000" stroke="none" 
	d="
M883.455566,594.247803 
	C883.905518,594.656982 884.339539,595.371887 884.625122,596.415344 
	C884.130981,596.013733 883.785278,595.283691 883.455566,594.247803 
z"/>
<path fill="#FDFDFD" opacity="1.000000" stroke="none" 
	d="
M174.071671,20.901077 
	C174.068069,20.656284 174.272110,20.359959 174.716660,20.203815 
	C174.782181,20.580864 174.556229,20.749378 174.071671,20.901077 
z"/>
<path fill="#FDFDFD" opacity="1.000000" stroke="none" 
	d="
M209.091217,8.881542 
	C209.058044,8.657303 209.252365,8.361721 209.716034,8.109007 
	C209.844589,8.453811 209.622375,8.673252 209.091217,8.881542 
z"/>
<path fill="#1F1F1F" opacity="1.000000" stroke="none" 
	d="
M1030.447998,607.625610 
	C1030.335815,608.057739 1030.061890,608.319458 1029.787964,608.581177 
	C1029.680176,608.467346 1029.472046,608.260742 1029.479126,608.253113 
	C1029.735840,607.975647 1030.012451,607.716675 1030.447998,607.625610 
z"/>
<path fill="#1F1F1E" opacity="1.000000" stroke="none" 
	d="
M1108.004150,590.005493 
	C1108.089844,589.970093 1108.171509,589.929260 1108.121216,589.940186 
	C1107.989258,589.991943 1108.000000,590.000000 1108.004150,590.005493 
z"/>
<path fill="#1F1F1F" opacity="1.000000" stroke="none" 
	d="
M1036.523682,590.542480 
	C1036.475220,590.570068 1036.572266,590.514893 1036.523682,590.542480 
z"/>
</svg>