<?xml version="1.0" encoding="UTF-8"?>
<svg version="1.1" xmlns="http://www.w3.org/2000/svg" width="722" height="442">
<path d="M0 0 C238.26 0 476.52 0 722 0 C722 145.86 722 291.72 722 442 C483.74 442 245.48 442 0 442 C0 296.14 0 150.28 0 0 Z " fill="#FEFEFE" transform="translate(0,0)"/>
<path d="M0 0 C24.75 0 49.5 0 75 0 C75 5.94 75 11.88 75 18 C68.4 18 61.8 18 55 18 C55.75539062 19.876875 56.51078125 21.75375 57.2890625 23.6875 C66.15026127 45.74015032 74.85644058 67.85301443 83.53369141 89.97851562 C84.22954346 91.75258034 84.22954346 91.75258034 84.93945312 93.56248474 C85.81010866 95.78260319 86.68041459 98.00285879 87.55029297 100.22328186 C89.73720024 105.80124886 91.9429135 111.37056767 94.18838501 116.92524719 C95.73196699 120.87114653 96.83745184 124.93108145 98 129 C100.81349045 122.14681409 103.37000845 115.23973918 105.765625 108.23046875 C106.49086987 106.12369256 107.21613098 104.01692197 107.94140625 101.91015625 C108.31797363 100.8133252 108.69454102 99.71649414 109.08251953 98.58642578 C115.2902368 80.51368638 121.5575936 62.46241697 127.9510498 44.45449829 C128.6477169 42.49224905 129.34344365 40.52966569 130.03820801 38.56674194 C131.00181996 35.84556633 131.96899684 33.12568802 132.9375 30.40625 C133.22002625 29.60762039 133.50255249 28.80899078 133.79364014 27.98616028 C134.18776093 26.88409492 134.18776093 26.88409492 134.58984375 25.75976562 C134.81534912 25.12607056 135.04085449 24.49237549 135.27319336 23.83947754 C136.06261551 21.84152619 137.03927143 19.92145714 138 18 C131.4 18 124.8 18 118 18 C117.979375 15.215625 117.95875 12.43125 117.9375 9.5625 C117.928396 8.68408447 117.91929199 7.80566895 117.90991211 6.90063477 C117.90276909 4.93354026 117.94968107 2.96646379 118 1 C119 0 119 0 121.13768864 -0.12304783 C122.0880572 -0.12212604 123.03842577 -0.12120424 124.01759338 -0.12025452 C125.10439392 -0.12162918 126.19119446 -0.12300385 127.31092834 -0.12442017 C128.51357834 -0.12082489 129.71622833 -0.11722961 130.95532227 -0.11352539 C132.21367889 -0.11367142 133.47203552 -0.11381744 134.76852417 -0.1139679 C138.22911253 -0.11425585 141.68966652 -0.10835949 145.15024686 -0.10139394 C148.76308091 -0.09516003 152.37591567 -0.09455657 155.98875427 -0.09336853 C162.83463508 -0.09025532 169.6805 -0.08204208 176.5263738 -0.07201904 C184.31826589 -0.06085757 192.11015873 -0.05534737 199.90205681 -0.05032361 C215.93471412 -0.03985946 231.96735441 -0.02205976 248 0 C248 5.94 248 11.88 248 18 C241.4 18 234.8 18 228 18 C229.33028075 23.36761824 230.66216336 28.73479312 231.99780273 34.10107422 C232.44953361 35.91791182 232.90041224 37.73496157 233.3503418 39.55224609 C235.84043427 49.60721168 238.41719002 59.62302855 241.22937012 69.59292603 C243.24154015 76.76802745 244.98434956 83.99512226 246.6875 91.25 C247.27227108 93.73495719 247.85942293 96.21935562 248.44921875 98.703125 C248.70018311 99.77208008 248.95114746 100.84103516 249.2097168 101.94238281 C250.0047082 105.0182161 250.98549946 107.99065663 252 111 C252.41950406 113.01206578 252.79517332 115.03380418 253.125 117.0625 C253.29257812 118.06410156 253.46015625 119.06570312 253.6328125 120.09765625 C253.97120286 122.77238007 254.06914506 125.30828161 254 128 C254.66 128 255.32 128 256 128 C256.10739502 127.40791748 256.21479004 126.81583496 256.32543945 126.20581055 C257.57552103 119.61382925 259.27014291 113.23884185 261.1875 106.8125 C261.49429687 105.77077637 261.80109375 104.72905273 262.1171875 103.65576172 C263.91687363 97.5671297 265.76545812 91.49458939 267.63623047 85.42749023 C270.80335435 75.15179351 273.69109792 64.83045943 276.4387207 54.43481445 C278.40469247 47.05369068 280.57929595 39.77209205 282.93505859 32.50708008 C284.87576709 26.49640235 286.53577654 20.4439198 288.125 14.33203125 C291.49284579 1.50715421 291.49284579 1.50715421 293 0 C294.4887186 -0.08669432 295.981445 -0.10703494 297.47265625 -0.09765625 C298.37177734 -0.09443359 299.27089844 -0.09121094 300.19726562 -0.08789062 C301.14279297 -0.07951172 302.08832031 -0.07113281 303.0625 -0.0625 C304.4865918 -0.05573242 304.4865918 -0.05573242 305.93945312 -0.04882812 C308.29303065 -0.0370011 310.64648477 -0.02052025 313 0 C315.37238353 4.41659873 316.97367241 8.81463387 318.3125 13.625 C318.74674561 15.14211335 319.18166966 16.65903263 319.6171875 18.17578125 C319.84245117 18.96549316 320.06771484 19.75520508 320.29980469 20.56884766 C321.47818608 24.66031276 322.70884262 28.73590486 323.9375 32.8125 C324.38419415 34.29815316 324.83080536 35.78383127 325.27734375 37.26953125 C325.65910767 38.53796875 325.65910767 38.53796875 326.04858398 39.83203125 C326.80000697 42.33407504 327.54919786 44.83675277 328.29711914 47.33984375 C330.91645276 56.09889229 333.56133719 64.8491066 336.25390625 73.5859375 C347.65756846 110.67267086 347.65756846 110.67267086 351 128 C351.20044922 127.14809082 351.40089844 126.29618164 351.60742188 125.41845703 C352.0517883 123.52989974 352.4961565 121.64134286 352.94055176 119.75279236 C353.82516707 115.9933674 354.70960304 112.23390037 355.59375 108.47436523 C357.40278172 100.78286855 359.21377612 93.09185024 361.03125 85.40234375 C361.68785352 82.6224792 362.34405708 79.8425205 363 77.0625 C363.16228088 76.37491608 363.32456177 75.68733215 363.49176025 74.97891235 C365.42793242 66.768694 367.33785864 58.55298065 369.2109375 50.328125 C369.39303772 49.52874008 369.57513794 48.72935516 369.76275635 47.90574646 C370.6407923 44.04802879 371.5158315 40.18965995 372.38671875 36.33032227 C372.70310283 34.93505357 373.01950799 33.53978965 373.3359375 32.14453125 C373.60970215 30.93128174 373.8834668 29.71803223 374.16552734 28.46801758 C375.01122776 24.95333813 376.0068848 21.47590319 377 18 C370.73 18 364.46 18 358 18 C357.9690625 13.8234375 357.9690625 13.8234375 357.9375 9.5625 C357.928396 8.68408447 357.91929199 7.80566895 357.90991211 6.90063477 C357.90276909 4.93354026 357.94968107 2.96646379 358 1 C359 0 359 0 361.39808655 -0.12025452 C362.46175949 -0.11803391 363.52543243 -0.11581329 364.62133789 -0.11352539 C366.42309227 -0.11341209 366.42309227 -0.11341209 368.26124573 -0.11329651 C369.5685112 -0.10813522 370.87577667 -0.10297394 372.22265625 -0.09765625 C373.56644132 -0.09579198 374.91022707 -0.09436812 376.25401306 -0.09336853 C379.79682277 -0.08954402 383.3395917 -0.07971432 386.88238525 -0.06866455 C390.49515227 -0.05844899 394.10792584 -0.0538706 397.72070312 -0.04882812 C404.81382039 -0.03809198 411.90690325 -0.02049572 419 0 C419 5.94 419 11.88 419 18 C412.73 18 406.46 18 400 18 C399.34 20.97 398.68 23.94 398 27 C397.4081046 29.45287375 396.80675488 31.90348815 396.1953125 34.3515625 C396.03006073 35.01352631 395.86480896 35.67549011 395.69454956 36.35751343 C395.34723684 37.74743854 394.99934171 39.13721824 394.65087891 40.52685547 C394.13139068 42.59950255 393.61438919 44.67275826 393.09765625 46.74609375 C389.9483535 59.35126652 386.600976 71.89684698 383.10839844 84.41162109 C379.64876641 96.81579331 376.3815363 109.25072494 373.30078125 121.75390625 C371.94078526 127.26982907 370.49225843 132.75731897 369.01171875 138.2421875 C367.73909391 142.96907976 366.49390902 147.70298471 365.25 152.4375 C364.13625 156.6759375 364.13625 156.6759375 363 161 C352.77 161 342.54 161 332 161 C329.98819986 154.67018981 327.98554347 148.33804654 326 142 C325.71672852 141.09636719 325.43345703 140.19273437 325.14160156 139.26171875 C321.36506249 127.16641147 317.87748098 115.0216253 314.62744141 102.77441406 C311.87732628 92.44111395 308.88075159 82.18741949 305.85839844 71.93115234 C304.40282946 66.96085623 302.98197301 61.98070405 301.5625 57 C301.30331787 56.09080811 301.04413574 55.18161621 300.77709961 54.24487305 C300.18417053 52.16340886 299.59199221 50.08173084 299 48 C296.46939625 54.44573236 294.46915649 60.97055932 292.5625 67.625 C292.25248047 68.6975 291.94246094 69.77 291.62304688 70.875 C289.76284484 77.31746071 287.91983642 83.76484882 286.0859375 90.21484375 C284.61672727 95.33593982 283.11979768 100.448824 281.625 105.5625 C276.24224055 123.99676497 271.0226381 142.4640737 266 161 C255.77 161 245.54 161 235 161 C233.06417921 155.19253763 231.22772827 149.45601781 229.625 143.5625 C229.18750377 141.97265521 228.75000367 140.38281149 228.3125 138.79296875 C227.8748829 137.19534457 227.43738014 135.59768907 227 134 C226.21110058 131.12423108 225.41951384 128.24922289 224.625 125.375 C224.42479248 124.65014404 224.22458496 123.92528809 224.01831055 123.1784668 C222.22429191 116.72429923 220.33067364 110.30065112 218.4375 103.875 C216.1036395 95.94669302 213.96900038 88.01766679 212.02734375 79.984375 C210.84970065 75.2738026 209.41976941 70.64217723 208 66 C205.79555217 58.79071239 203.85191219 51.58205249 202.078125 44.25390625 C199.97719504 35.76985674 197.4295238 27.3929004 195 19 C183.78 19 172.56 19 161 19 C155.55567122 33.48084705 150.14915461 47.97338209 144.82675171 62.49942017 C143.31186565 66.63301582 141.79425508 70.76560988 140.27690125 74.89830017 C137.72372016 81.85237232 135.17113262 88.8066626 132.62030029 95.76159668 C130.0092318 102.88075326 127.3967157 109.9993728 124.78040504 117.1166048 C123.62697652 120.25454153 122.47478023 123.39291713 121.32434082 126.5319519 C120.03505081 130.0495382 118.74248319 133.56590457 117.44921875 137.08203125 C116.88460182 138.62605118 116.88460182 138.62605118 116.30857849 140.20126343 C113.71777023 147.23103662 110.88767989 154.06956827 108 161 C98.43 161 88.86 161 79 161 C70.34594715 140.16815248 61.70826072 119.33010458 53.15948486 98.45480347 C49.11619596 88.58209536 45.06027625 78.71476424 40.984375 68.85546875 C40.55893402 67.82629837 40.13349304 66.79712799 39.69515991 65.73677063 C37.62125147 60.72082491 35.54601499 55.70543262 33.46923828 50.69067383 C32.70589714 48.84593107 31.94270941 47.00112482 31.1796875 45.15625 C30.81678619 44.27921921 30.45388489 43.40218842 30.07998657 42.49858093 C27.35521285 35.89824998 24.70442397 29.27100038 22.09814453 22.62304688 C21.24410392 20.11770861 21.24410392 20.11770861 20 19 C18.51361008 18.84344973 17.02050873 18.74933057 15.52734375 18.68359375 C14.62822266 18.64169922 13.72910156 18.59980469 12.80273438 18.55664062 C11.85720703 18.51732422 10.91167969 18.47800781 9.9375 18.4375 C8.5134082 18.37272461 8.5134082 18.37272461 7.06054688 18.30664062 C4.70721824 18.20020868 2.35362901 18.09956846 0 18 C0 12.06 0 6.12 0 0 Z " fill="#030303" transform="translate(137,125)"/>
</svg>
